# xmcd
#
# Track frame offsets: 
#        150
#        8681
#        16227
#        26413
#        35764
#        46330
#        56051
#        63330
#        73752
#        84634
#        94276
#        100365
#        107714
#        115477
#        125841
#        135934
#        145632
#        158187
#        168389
#        179903
#        188202
#        196320
#        207951
#        214484
#        225725
#        234619
#        244128
#        256165
#        267227
#        272867
#        281825
#        290129
#        297734
#        309550
#        312876
#        318572
#
# Disc length: 4465 seconds
#
# Revision: 2
# Processed by: cddbd v1.5.2PL0 Copyright (c) Steve Scherf et al.
# Submitted via: ExactAudioCopy v1.3
#
DISCID=37116f24
DTITLE=Harley Huggins and the Barn Dance Gang - Harley Huggins and The Bar
DTITLE=n Dance Gang_1946
DYEAR=2002
DGENRE=Western Swing
TTITLE0=I Got Rhythm
TTITLE1=You're Tired of Me
TTITLE2=The Waltz You Saved for Me
TTITLE3=Shine
TTITLE4=Live and Let Live
TTITLE5=Wabash Blues
TTITLE6=At the Darktown Strutters Ball
TTITLE7=I've Got a Feeling I'm Falling
TTITLE8=Baby Won't You Please Come Home
TTITLE9=Columbus Stockade Blues
TTITLE10=Skip It
TTITLE11=Blue Steel Blues
TTITLE12=Jole Blon Likes the Boogie
TTITLE13=Spanish Two Step
TTITLE14=Texas Tornado
TTITLE15=In the Heart of the Golden West
TTITLE16=My Heart Went That-Away
TTITLE17=Shine
TTITLE18=Across the Alley from the Alamo
TTITLE19=Hot Lips
TTITLE20=Fat Gal
TTITLE21=Oklahoma Hills
TTITLE22=12th Street Rag
TTITLE23=Somebody Loves You
TTITLE24=Poor Folks All the Time
TTITLE25=You Two Timed Me One Time Too Often
TTITLE26=Monkey Business on the Steel
TTITLE27=In the Shade of the Old Apple Tree
TTITLE28=Margie
TTITLE29=Beg Your Pardon
TTITLE30=Draggin' the Bow
TTITLE31=Rubber Dolly
TTITLE32=If You're Ever Going to Love Me, Love Me Now
TTITLE33=Nobody's Sweetheart Now
TTITLE34=Redwing
TTITLE35=Texas Playboy Rag
EXTD=Recorded on 16-inch radio transcription discs for station KMJ, Fr
EXTD=esno US-CA, 1946.\nHarley Theodore Huggins (1908-09-14/1984-04-09
EXTD=): vocals, rhythm guitar, bass, leader\nAlbert E. "Curley" Robert
EXTD=s: vocals, rhythm guitar\nDarrell Eugene Barnard: vocals, electri
EXTD=c guitar, steel guitar\nLloyd "Arkansas Slim" Andrews: mandolins,
EXTD=harmonica, accordion\nManny White: vocals, acoustic guitar\nJ.L.
EXTD=Jenkins: steel guitar\nRobert Bruce Berg: vocals, fiddle\nWillia
EXTD=m Subco: fiddle\nWilliam Alex Brashear: trumpet\nMancel V. Tierne
EXTD=y: piano\nCD: Country Routes RFD CD 27 (2002-08-27), UPC 00863790
EXTD=2728.
EXTT0=
EXTT1=
EXTT2=
EXTT3=
EXTT4=
EXTT5=
EXTT6=
EXTT7=
EXTT8=
EXTT9=(Jimmie Davis/Eva Sargent)
EXTT10=
EXTT11=
EXTT12=
EXTT13=
EXTT14=
EXTT15=
EXTT16=
EXTT17=
EXTT18=
EXTT19=
EXTT20=
EXTT21=
EXTT22=
EXTT23=
EXTT24=
EXTT25=
EXTT26=
EXTT27=
EXTT28=
EXTT29=
EXTT30=
EXTT31=
EXTT32=
EXTT33=
EXTT34=
EXTT35=
PLAYORDER=
